<svg id="Capa_1" data-name="Capa 1" xmlns="http://www.w3.org/2000/svg" viewBox="0 0 45 45"><defs><style>.cls-1{fill:#fff;}.cls-2{fill:#f9a77a;}</style></defs><path class="cls-1" d="M31,21.59a1.44,1.44,0,0,1,.32.91,1,1,0,0,1,0,.33.72.72,0,0,1-.07.25,2.15,2.15,0,0,1-.14.26.77.77,0,0,1-.17.19l-.06.07-5.16,5.15a1.5,1.5,0,0,1-2.12-2.12L26.19,24H15a1.5,1.5,0,0,1,0-3H26.18l-2.67-2.67a1.5,1.5,0,0,1,2.12-2.12l5.19,5.19A1.54,1.54,0,0,1,31,21.59Z"/><path class="cls-2" d="M42.39,22.5h0A19.9,19.9,0,1,1,22.5,2.6h0A19.9,19.9,0,0,1,42.39,22.5Zm-11.13.33a1,1,0,0,0,0-.33,1.44,1.44,0,0,0-.32-.91,1.54,1.54,0,0,0-.17-.19l-5.19-5.19a1.5,1.5,0,0,0-2.12,2.12L26.18,21H15a1.5,1.5,0,0,0,0,3H26.19l-2.65,2.63a1.5,1.5,0,1,0,2.12,2.12l5.16-5.15.06-.07a.77.77,0,0,0,.17-.19,2.15,2.15,0,0,0,.14-.26A.72.72,0,0,0,31.26,22.83Z"/></svg>