<svg id="Capa_1" data-name="Capa 1" xmlns="http://www.w3.org/2000/svg" viewBox="0 0 45 45"><defs><style>.cls-1{fill:#f9a77a;}</style></defs><path class="cls-1" d="M22.5,2.6A19.9,19.9,0,1,0,42.39,22.5,19.89,19.89,0,0,0,22.5,2.6Zm8.76,20.23a.72.72,0,0,1-.07.25,2.15,2.15,0,0,1-.14.26.75.75,0,0,1-.17.19s0,0,0,0l-.06.07-5.16,5.15a1.49,1.49,0,0,1-1.06.44,1.53,1.53,0,0,1-1.06-.44,1.51,1.51,0,0,1,0-2.12L26.19,24H15a1.5,1.5,0,1,1,0-3H26.18l-2.67-2.67a1.5,1.5,0,0,1,2.12-2.12l5.19,5.19a1.54,1.54,0,0,1,.17.19,1.46,1.46,0,0,1,.32.91A.88.88,0,0,1,31.26,22.83Z"/></svg>