<svg id="Capa_1" data-name="Capa 1" xmlns="http://www.w3.org/2000/svg" viewBox="0 0 170 50"><path d="M9,37.51a2.9,2.9,0,0,1-1.47-.29,1.17,1.17,0,0,1-.58-.81,5.44,5.44,0,0,1-.11-1.09V14.54a4,4,0,0,1,.13-1.06,1.31,1.31,0,0,1,.59-.79A2.81,2.81,0,0,1,9,12.38h7.63a9.15,9.15,0,0,1,3.1.54,8.15,8.15,0,0,1,2.71,1.62,7.66,7.66,0,0,1,1.91,2.67,9,9,0,0,1,.7,3.7,8.82,8.82,0,0,1-.7,3.66,7.89,7.89,0,0,1-1.92,2.65,8.5,8.5,0,0,1-2.72,1.62,9.14,9.14,0,0,1-3.12.54H11.16v6A4.1,4.1,0,0,1,11,36.43a1.24,1.24,0,0,1-.57.79A2.93,2.93,0,0,1,9,37.51ZM11.16,25h5.47a4.55,4.55,0,0,0,2-.45,3.59,3.59,0,0,0,1.5-1.37,4.31,4.31,0,0,0,.57-2.32,4.34,4.34,0,0,0-.52-2.18,3.71,3.71,0,0,0-1.44-1.42,4.53,4.53,0,0,0-2.18-.5H11.16Z"/><path d="M70.93,20a13.11,13.11,0,0,0-2.67-4.08,12,12,0,0,0-8.82-3.75,11.16,11.16,0,0,0-4.71,1A12.12,12.12,0,0,0,50.86,16a12.79,12.79,0,0,0-1.37,1.74,12.45,12.45,0,0,0-5.38-4.55,12,12,0,0,0-4.87-1,11.21,11.21,0,0,0-4.72,1A12.34,12.34,0,0,0,30.65,16,13.28,13.28,0,0,0,28,20.1a13.47,13.47,0,0,0-.95,5.06,12.36,12.36,0,0,0,1,4.91,12.9,12.9,0,0,0,6.68,6.77,11.87,11.87,0,0,0,4.84,1,11.22,11.22,0,0,0,4.7-1,12.62,12.62,0,0,0,5.24-4.49A12.14,12.14,0,0,0,51,34.1a12.7,12.7,0,0,0,4,2.74,11.84,11.84,0,0,0,4.84,1,11.25,11.25,0,0,0,4.7-1,12.35,12.35,0,0,0,3.87-2.77,13.08,13.08,0,0,0,3.56-9A12.88,12.88,0,0,0,70.93,20Zm-4,8.32A8.41,8.41,0,0,1,65.22,31a8,8,0,0,1-2.54,1.8,7.48,7.48,0,0,1-3.09.65,7.36,7.36,0,0,1-3.08-.65A7.79,7.79,0,0,1,54,31a8.75,8.75,0,0,1-1.71-2.7,1.54,1.54,0,0,0-.08-.19,2.82,2.82,0,0,0-2.62-1.85h-.17a2.81,2.81,0,0,0-2.63,1.88l-.08.18A8.24,8.24,0,0,1,45,31a7.91,7.91,0,0,1-2.53,1.8,7.52,7.52,0,0,1-3.1.65,7.4,7.4,0,0,1-3.08-.65A7.79,7.79,0,0,1,33.8,31a8.75,8.75,0,0,1-1.71-2.7A8.58,8.58,0,0,1,31.46,25a8.77,8.77,0,0,1,.61-3.28A8.59,8.59,0,0,1,33.78,19a8,8,0,0,1,2.54-1.82,7.68,7.68,0,0,1,6.14,0A8,8,0,0,1,45,19a8.85,8.85,0,0,1,1.73,2.7l0,.05a2.84,2.84,0,0,0,2.64,1.86h.27a2.87,2.87,0,0,0,2.64-1.87v0A8.59,8.59,0,0,1,54,19a8,8,0,0,1,2.54-1.82,7.68,7.68,0,0,1,6.14,0A8.27,8.27,0,0,1,65.19,19a8.82,8.82,0,0,1,1.72,2.7,8.58,8.58,0,0,1,.63,3.3A8.75,8.75,0,0,1,66.93,28.31Z"/><path d="M77.16,37.55a2.72,2.72,0,0,1-1.48-.31,1.23,1.23,0,0,1-.57-.81A4.8,4.8,0,0,1,75,35.32V14.54a2.34,2.34,0,0,1,.48-1.69,2.62,2.62,0,0,1,1.79-.47h14a4.52,4.52,0,0,1,1.09.13,1.26,1.26,0,0,1,.78.58,2.88,2.88,0,0,1,.29,1.49,2.84,2.84,0,0,1-.31,1.48,1.24,1.24,0,0,1-.79.57,5.25,5.25,0,0,1-1.1.11H79.35v6.05h8.21a4,4,0,0,1,1,.12,1.22,1.22,0,0,1,.68.53,2.55,2.55,0,0,1,.25,1.33,2.57,2.57,0,0,1-.25,1.31,1,1,0,0,1-.72.51,5.74,5.74,0,0,1-1.08.09H79.35v6.48h12a4.55,4.55,0,0,1,1.09.12,1.26,1.26,0,0,1,.78.6,2.9,2.9,0,0,1,.29,1.47,2.81,2.81,0,0,1-.31,1.48,1.31,1.31,0,0,1-.79.59,4.61,4.61,0,0,1-1.1.13Z"/><path d="M98.72,37.51a2.52,2.52,0,0,1-1.4-.32,1.48,1.48,0,0,1-.6-.87,5.42,5.42,0,0,1-.12-1.18V14.69a4.69,4.69,0,0,1,.14-1.17,1.56,1.56,0,0,1,.6-.85,2.42,2.42,0,0,1,1.42-.32h9.5a6.91,6.91,0,0,1,6.19,3.54,7.06,7.06,0,0,1,.9,3.51,7.53,7.53,0,0,1-.19,1.71,5.85,5.85,0,0,1-.62,1.57,5.52,5.52,0,0,1-1,1.3A6.62,6.62,0,0,1,115,25.56a7.32,7.32,0,0,1,.92,2,8.72,8.72,0,0,1,.3,2.29,8.29,8.29,0,0,1-.61,3,7.66,7.66,0,0,1-1.6,2.43,7.48,7.48,0,0,1-2.4,1.62,7.57,7.57,0,0,1-2.95.57ZM101,33.26h7.31a4.24,4.24,0,0,0,1.86-.39,2.9,2.9,0,0,0,1.27-1.23,4.27,4.27,0,0,0,.47-2.16,4.31,4.31,0,0,0-.27-1.67,2.49,2.49,0,0,0-.72-1,2.52,2.52,0,0,0-1-.5,5.25,5.25,0,0,0-1.09-.17H106.1a1.84,1.84,0,0,1-1.37-.45,2.17,2.17,0,0,1-.43-1.5,1.75,1.75,0,0,1,.47-1.38,2.1,2.1,0,0,1,1.44-.42h1.62l1,0a3.25,3.25,0,0,0,1.06-.27,2,2,0,0,0,.83-.78,3.19,3.19,0,0,0,.32-1.58,3,3,0,0,0-.85-2.36,4.42,4.42,0,0,0-2.89-.74H101Z"/><path d="M121.94,37.55a2.79,2.79,0,0,1-1.51-.31,1.3,1.3,0,0,1-.59-.81,4.1,4.1,0,0,1-.13-1.08V14.58a4.36,4.36,0,0,1,.13-1.12,1.26,1.26,0,0,1,.57-.79,2.93,2.93,0,0,1,1.5-.29,2.79,2.79,0,0,1,1.45.29,1.28,1.28,0,0,1,.58.79,4.85,4.85,0,0,1,.13,1.12V33.66h11a4.78,4.78,0,0,1,1,.09,1,1,0,0,1,.68.5,2.63,2.63,0,0,1,.25,1.32,2.57,2.57,0,0,1-.25,1.31,1.13,1.13,0,0,1-.68.54,3.61,3.61,0,0,1-1,.13Z"/><path d="M151.07,37.84a12.09,12.09,0,0,1-4.85-1,12.82,12.82,0,0,1-4-2.74,12.61,12.61,0,0,1-3.68-8.95,13.24,13.24,0,0,1,1-5.05A12.88,12.88,0,0,1,142.16,16,12.12,12.12,0,0,1,146,13.18a11,11,0,0,1,4.71-1,12,12,0,0,1,4.88,1,12.33,12.33,0,0,1,3.94,2.75A13.27,13.27,0,0,1,162.23,20a13.49,13.49,0,0,1,0,10,12.69,12.69,0,0,1-2.63,4.1,12.15,12.15,0,0,1-3.87,2.78A11.33,11.33,0,0,1,151.07,37.84Zm-.18-4.4A7.47,7.47,0,0,0,154,32.8,8.14,8.14,0,0,0,156.52,31a8.3,8.3,0,0,0,1.71-2.68,8.71,8.71,0,0,0,.61-3.29,8.53,8.53,0,0,0-.63-3.29,8.67,8.67,0,0,0-1.73-2.7A7.88,7.88,0,0,0,154,17.21a7.32,7.32,0,0,0-3.07-.65,7.4,7.4,0,0,0-3.06.65A7.86,7.86,0,0,0,145.29,19a8.55,8.55,0,0,0-1.71,2.71A8.85,8.85,0,0,0,143,25a8.72,8.72,0,0,0,2.34,6,8,8,0,0,0,2.5,1.81A7.36,7.36,0,0,0,150.89,33.44Z"/></svg>